<svg width="313" height="130" viewBox="0 0 313 130" fill="none" xmlns="http://www.w3.org/2000/svg">
<path fill-rule="evenodd" clip-rule="evenodd" d="M84.832 52.7033C85.5237 56.6264 85.4358 60.647 84.574 64.536C83.7117 68.4251 82.092 72.1059 79.8068 75.369C77.5221 78.6324 74.6173 81.4133 71.2576 83.5537C67.8979 85.6937 64.1499 87.1514 60.2268 87.8432C56.3037 88.5349 52.2831 88.447 48.3941 87.5852C44.5051 86.7229 40.824 85.1032 37.5609 82.8181C34.2979 80.5333 31.5169 77.6285 29.3766 74.2688C27.2363 70.9091 25.7787 67.1611 25.0869 63.238C23.69 55.3154 25.4975 47.1622 30.1118 40.5722C34.7262 33.9822 41.7695 29.4951 49.6921 28.0982C57.6147 26.7012 65.768 28.5087 72.3577 33.1231C78.9479 37.7374 83.435 44.7807 84.832 52.7033ZM84.2257 83.7523C77.6365 91.2319 68.4337 95.9044 58.5074 96.8107C48.5807 97.7167 38.6839 94.7879 30.8495 88.6252C23.015 82.4625 17.8376 73.534 16.3806 63.6731C14.9235 53.8123 17.2974 43.7679 23.0147 35.6027C28.732 27.4375 37.3587 21.7714 47.1232 19.768C56.8878 17.7646 67.0486 19.576 75.5192 24.8302C83.9898 30.0844 90.1268 38.3826 92.6707 48.0206C95.214 57.6582 93.9708 67.9041 89.1959 76.6541L117.688 96.5968C118.155 96.9237 118.552 97.3394 118.858 97.8196C119.165 98.3002 119.373 98.8363 119.472 99.3975C119.571 99.9587 119.559 100.534 119.435 101.09C119.312 101.646 119.08 102.173 118.753 102.64C118.426 103.106 118.011 103.504 117.531 103.81C117.05 104.117 116.514 104.325 115.953 104.424C115.391 104.523 114.816 104.51 114.26 104.387C113.704 104.263 113.177 104.032 112.711 103.705L84.2342 83.7508L84.2257 83.7523Z" fill="#F2B441"/>
<mask id="mask0_1_9" style="mask-type:alpha" maskUnits="userSpaceOnUse" x="27" y="38" width="56" height="47">
<path d="M64.4657 47.4357C64.4657 49.868 63.4994 52.2011 61.779 53.9214C60.0591 55.6413 57.7261 56.6076 55.2933 56.6076C52.8606 56.6076 50.5275 55.6413 48.8076 53.9214C47.0873 52.2011 46.121 49.868 46.121 47.4357C46.121 45.003 47.0873 42.6699 48.8076 40.9498C50.5275 39.2297 52.8606 38.2633 55.2933 38.2633C57.7261 38.2633 60.0591 39.2297 61.779 40.9498C63.4994 42.6699 64.4657 45.003 64.4657 47.4357ZM79.7524 53.5505C79.7524 55.172 79.1085 56.7272 77.9614 57.8743C76.8148 59.0209 75.2596 59.6652 73.6376 59.6652C72.0161 59.6652 70.4609 59.0209 69.3138 57.8743C68.1672 56.7272 67.5229 55.172 67.5229 53.5505C67.5229 51.9285 68.1672 50.3733 69.3138 49.2267C70.4609 48.0796 72.0161 47.4357 73.6376 47.4357C75.2596 47.4357 76.8148 48.0796 77.9614 49.2267C79.1085 50.3733 79.7524 51.9285 79.7524 53.5505ZM67.5229 74.9524C67.5229 71.7089 66.2346 68.598 63.9409 66.3048C61.6473 64.0111 58.5368 62.7224 55.2933 62.7224C52.0498 62.7224 48.9394 64.0111 46.6457 66.3048C44.3521 68.598 43.0638 71.7089 43.0638 74.9524V84.1243H67.5229V74.9524ZM43.0638 53.5505C43.0638 55.172 42.4194 56.7272 41.2727 57.8743C40.126 59.0209 38.5707 59.6652 36.9489 59.6652C35.3272 59.6652 33.7718 59.0209 32.6251 57.8743C31.4783 56.7272 30.8341 55.172 30.8341 53.5505C30.8341 51.9285 31.4783 50.3733 32.6251 49.2267C33.7718 48.0796 35.3272 47.4357 36.9489 47.4357C38.5707 47.4357 40.126 48.0796 41.2727 49.2267C42.4194 50.3733 43.0638 51.9285 43.0638 53.5505ZM71.3449 84.1243V74.9524C71.3496 71.8436 70.5601 68.7856 69.0521 66.0673C70.4076 65.7206 74.1169 65.6877 75.4871 65.972C76.8573 66.2558 78.1443 66.849 79.2502 67.7057C80.356 68.5629 81.2517 69.6614 81.8688 70.9172C82.4854 72.173 82.8074 73.5531 82.81 74.9524V84.1243H71.3449ZM41.535 66.0673C40.0269 68.7856 39.2376 71.8436 39.2419 74.9524V84.1243H27.7767V74.9524C27.7761 73.5518 28.0961 72.1704 28.7121 70.9128C29.3281 69.6557 30.2238 68.5559 31.3306 67.6984C32.4373 66.8408 33.7257 66.2476 35.0971 65.965C36.4684 65.6825 40.1793 65.7172 41.535 66.0673Z" fill="black"/>
</mask>
<g mask="url(#mask0_1_9)">
<path d="M81.1581 53.148C83.6931 67.5248 74.0932 81.2349 59.7165 83.7699C45.3395 86.3049 31.6296 76.705 29.0946 62.3282C26.5596 47.9513 36.1593 34.2414 50.5363 31.7064C64.913 29.1714 78.6231 38.7711 81.1581 53.148Z" fill="white"/>
</g>
<path d="M116.32 60.506C112.732 60.506 109.65 59.816 107.074 58.436C104.498 57.056 102.52 55.1087 101.14 52.594C99.7907 50.0793 99.116 47.1353 99.116 43.762C99.116 41.2473 99.4993 38.9627 100.266 36.908C101.063 34.8533 102.198 33.09 103.67 31.618C105.173 30.146 106.982 29.0267 109.098 28.26C111.245 27.4627 113.652 27.064 116.32 27.064C117.731 27.064 119.187 27.2327 120.69 27.57C122.223 27.8767 123.573 28.352 124.738 28.996C125.597 29.456 126.195 30.0387 126.532 30.744C126.869 31.4493 126.977 32.17 126.854 32.906C126.762 33.642 126.501 34.3013 126.072 34.884C125.643 35.4667 125.091 35.8653 124.416 36.08C123.741 36.264 123.005 36.1567 122.208 35.758C121.288 35.3287 120.368 35.0067 119.448 34.792C118.559 34.5467 117.623 34.424 116.642 34.424C114.741 34.424 113.146 34.792 111.858 35.528C110.601 36.2333 109.65 37.276 109.006 38.656C108.362 40.036 108.04 41.738 108.04 43.762C108.04 45.786 108.362 47.5033 109.006 48.914C109.65 50.294 110.601 51.352 111.858 52.088C113.146 52.7933 114.741 53.146 116.642 53.146C117.439 53.146 118.298 53.054 119.218 52.87C120.138 52.6553 121.043 52.3333 121.932 51.904C122.852 51.5053 123.665 51.398 124.37 51.582C125.106 51.766 125.689 52.134 126.118 52.686C126.578 53.238 126.869 53.882 126.992 54.618C127.115 55.3233 127.007 56.0287 126.67 56.734C126.363 57.4393 125.811 58.0067 125.014 58.436C123.941 59.08 122.607 59.586 121.012 59.954C119.448 60.322 117.884 60.506 116.32 60.506ZM138.074 60.506C136.326 60.506 134.778 60.184 133.428 59.54C132.11 58.896 131.067 58.022 130.3 56.918C129.564 55.7833 129.196 54.4953 129.196 53.054C129.196 51.398 129.626 50.0947 130.484 49.144C131.343 48.1933 132.723 47.5187 134.624 47.12C136.526 46.6907 139.056 46.476 142.214 46.476H144.744V50.34H142.214C141.018 50.34 140.022 50.432 139.224 50.616C138.458 50.7693 137.89 51.03 137.522 51.398C137.154 51.7353 136.97 52.18 136.97 52.732C136.97 53.4373 137.216 54.02 137.706 54.48C138.228 54.94 138.964 55.17 139.914 55.17C140.681 55.17 141.356 55.0013 141.938 54.664C142.552 54.3267 143.042 53.8667 143.41 53.284C143.778 52.6707 143.962 51.9653 143.962 51.168V45.832C143.962 44.728 143.671 43.946 143.088 43.486C142.536 43.026 141.57 42.796 140.19 42.796C139.454 42.796 138.626 42.888 137.706 43.072C136.786 43.2253 135.759 43.5167 134.624 43.946C133.796 44.2527 133.091 44.2987 132.508 44.084C131.926 43.8693 131.466 43.5013 131.128 42.98C130.822 42.4587 130.668 41.8913 130.668 41.278C130.699 40.6647 130.898 40.082 131.266 39.53C131.665 38.978 132.263 38.5487 133.06 38.242C134.532 37.69 135.882 37.322 137.108 37.138C138.366 36.954 139.516 36.862 140.558 36.862C143.073 36.862 145.143 37.23 146.768 37.966C148.424 38.6713 149.651 39.7753 150.448 41.278C151.276 42.75 151.69 44.6513 151.69 46.982V56.274C151.69 57.6233 151.368 58.6507 150.724 59.356C150.08 60.0613 149.145 60.414 147.918 60.414C146.661 60.414 145.695 60.0613 145.02 59.356C144.376 58.6507 144.054 57.6233 144.054 56.274V55.078L144.33 55.722C144.177 56.7033 143.824 57.5467 143.272 58.252C142.72 58.9573 142 59.5093 141.11 59.908C140.221 60.3067 139.209 60.506 138.074 60.506ZM167.899 60.506C165.354 60.506 163.13 60.0307 161.229 59.08C159.358 58.1293 157.902 56.7647 156.859 54.986C155.816 53.1767 155.295 51.0607 155.295 48.638C155.295 46.798 155.586 45.1573 156.169 43.716C156.752 42.244 157.595 41.002 158.699 39.99C159.834 38.978 161.168 38.2113 162.701 37.69C164.265 37.138 165.998 36.862 167.899 36.862C168.788 36.862 169.724 36.954 170.705 37.138C171.686 37.2913 172.698 37.598 173.741 38.058C174.477 38.334 174.983 38.7633 175.259 39.346C175.566 39.898 175.688 40.496 175.627 41.14C175.596 41.784 175.412 42.3667 175.075 42.888C174.768 43.4093 174.324 43.762 173.741 43.946C173.189 44.13 172.56 44.0533 171.855 43.716C171.364 43.4707 170.843 43.302 170.291 43.21C169.77 43.0873 169.264 43.026 168.773 43.026C167.945 43.026 167.209 43.1487 166.565 43.394C165.952 43.6393 165.43 44.0073 165.001 44.498C164.572 44.958 164.234 45.5407 163.989 46.246C163.774 46.9513 163.667 47.7487 163.667 48.638C163.667 50.4167 164.112 51.812 165.001 52.824C165.89 53.836 167.148 54.342 168.773 54.342C169.264 54.342 169.77 54.296 170.291 54.204C170.812 54.0813 171.334 53.8973 171.855 53.652C172.56 53.3147 173.189 53.2533 173.741 53.468C174.293 53.652 174.738 54.0047 175.075 54.526C175.412 55.0473 175.596 55.63 175.627 56.274C175.658 56.8873 175.52 57.4853 175.213 58.068C174.906 58.62 174.385 59.034 173.649 59.31C172.637 59.77 171.64 60.0767 170.659 60.23C169.708 60.414 168.788 60.506 167.899 60.506ZM167.209 69.108C166.596 69.108 165.952 69.062 165.277 68.97C164.602 68.9087 163.974 68.8013 163.391 68.648C162.778 68.464 162.348 68.1573 162.103 67.728C161.888 67.3293 161.827 66.9 161.919 66.44C162.011 65.98 162.256 65.6273 162.655 65.382C163.054 65.1367 163.544 65.106 164.127 65.29C164.556 65.4127 164.94 65.4893 165.277 65.52C165.645 65.5813 165.998 65.612 166.335 65.612C167.132 65.612 167.7 65.5353 168.037 65.382C168.405 65.2287 168.589 64.9833 168.589 64.646C168.589 64.37 168.466 64.1553 168.221 64.002C167.976 63.8793 167.546 63.818 166.933 63.818C166.749 63.818 166.55 63.818 166.335 63.818C166.151 63.8487 165.952 63.8947 165.737 63.956C165.553 63.9867 165.369 63.9867 165.185 63.956C165.032 63.9253 164.878 63.8333 164.725 63.68C164.602 63.5267 164.51 63.3427 164.449 63.128C164.418 62.944 164.418 62.6987 164.449 62.392L164.909 59.08H168.819L168.267 62.622L166.381 61.84C166.718 61.6867 167.071 61.5793 167.439 61.518C167.838 61.4567 168.19 61.426 168.497 61.426C169.938 61.426 171.058 61.7327 171.855 62.346C172.652 62.9593 173.051 63.818 173.051 64.922C173.051 66.21 172.499 67.222 171.395 67.958C170.322 68.7247 168.926 69.108 167.209 69.108ZM186.455 60.506C184.707 60.506 183.159 60.184 181.809 59.54C180.491 58.896 179.448 58.022 178.681 56.918C177.945 55.7833 177.577 54.4953 177.577 53.054C177.577 51.398 178.007 50.0947 178.865 49.144C179.724 48.1933 181.104 47.5187 183.005 47.12C184.907 46.6907 187.437 46.476 190.595 46.476H193.125V50.34H190.595C189.399 50.34 188.403 50.432 187.605 50.616C186.839 50.7693 186.271 51.03 185.903 51.398C185.535 51.7353 185.351 52.18 185.351 52.732C185.351 53.4373 185.597 54.02 186.087 54.48C186.609 54.94 187.345 55.17 188.295 55.17C189.062 55.17 189.737 55.0013 190.319 54.664C190.933 54.3267 191.423 53.8667 191.791 53.284C192.159 52.6707 192.343 51.9653 192.343 51.168V45.832C192.343 44.728 192.052 43.946 191.469 43.486C190.917 43.026 189.951 42.796 188.571 42.796C187.835 42.796 187.007 42.888 186.087 43.072C185.167 43.2253 184.14 43.5167 183.005 43.946C182.177 44.2527 181.472 44.2987 180.889 44.084C180.307 43.8693 179.847 43.5013 179.509 42.98C179.203 42.4587 179.049 41.8913 179.049 41.278C179.08 40.6647 179.279 40.082 179.647 39.53C180.046 38.978 180.644 38.5487 181.441 38.242C182.913 37.69 184.263 37.322 185.489 37.138C186.747 36.954 187.897 36.862 188.939 36.862C191.454 36.862 193.524 37.23 195.149 37.966C196.805 38.6713 198.032 39.7753 198.829 41.278C199.657 42.75 200.071 44.6513 200.071 46.982V56.274C200.071 57.6233 199.749 58.6507 199.105 59.356C198.461 60.0613 197.526 60.414 196.299 60.414C195.042 60.414 194.076 60.0613 193.401 59.356C192.757 58.6507 192.435 57.6233 192.435 56.274V55.078L192.711 55.722C192.558 56.7033 192.205 57.5467 191.653 58.252C191.101 58.9573 190.381 59.5093 189.491 59.908C188.602 60.3067 187.59 60.506 186.455 60.506ZM213.196 50.846C212.276 50.846 211.51 50.5393 210.896 49.926C210.283 49.3127 209.976 48.546 209.976 47.626C209.976 46.706 210.283 45.9547 210.896 45.372C211.51 44.7587 212.276 44.452 213.196 44.452H222.304C223.224 44.452 223.991 44.7587 224.604 45.372C225.218 45.9547 225.524 46.706 225.524 47.626C225.524 48.546 225.218 49.3127 224.604 49.926C223.991 50.5393 223.224 50.846 222.304 50.846H213.196ZM136.419 100.414C135.07 100.414 134.027 100.046 133.291 99.31C132.555 98.5433 132.187 97.4853 132.187 96.136V74.47H124.965C123.831 74.47 122.957 74.1787 122.343 73.596C121.761 72.9827 121.469 72.124 121.469 71.02C121.469 69.8853 121.761 69.0267 122.343 68.444C122.957 67.8613 123.831 67.57 124.965 67.57H147.873C149.008 67.57 149.867 67.8613 150.449 68.444C151.063 69.0267 151.369 69.8853 151.369 71.02C151.369 72.124 151.063 72.9827 150.449 73.596C149.867 74.1787 149.008 74.47 147.873 74.47H140.651V96.136C140.651 97.4853 140.299 98.5433 139.593 99.31C138.888 100.046 137.83 100.414 136.419 100.414ZM157.83 100.506C156.082 100.506 154.534 100.184 153.184 99.54C151.866 98.896 150.823 98.022 150.056 96.918C149.32 95.7833 148.952 94.4953 148.952 93.054C148.952 91.398 149.382 90.0947 150.24 89.144C151.099 88.1933 152.479 87.5187 154.38 87.12C156.282 86.6907 158.812 86.476 161.97 86.476H164.5V90.34H161.97C160.774 90.34 159.778 90.432 158.98 90.616C158.214 90.7693 157.646 91.03 157.278 91.398C156.91 91.7353 156.726 92.18 156.726 92.732C156.726 93.4373 156.972 94.02 157.462 94.48C157.984 94.94 158.72 95.17 159.67 95.17C160.437 95.17 161.112 95.0013 161.694 94.664C162.308 94.3267 162.798 93.8667 163.166 93.284C163.534 92.6707 163.718 91.9653 163.718 91.168V85.832C163.718 84.728 163.427 83.946 162.844 83.486C162.292 83.026 161.326 82.796 159.946 82.796C159.21 82.796 158.382 82.888 157.462 83.072C156.542 83.2253 155.515 83.5167 154.38 83.946C153.552 84.2527 152.847 84.2987 152.264 84.084C151.682 83.8693 151.222 83.5013 150.884 82.98C150.578 82.4587 150.424 81.8913 150.424 81.278C150.455 80.6647 150.654 80.082 151.022 79.53C151.421 78.978 152.019 78.5487 152.816 78.242C154.288 77.69 155.638 77.322 156.864 77.138C158.122 76.954 159.272 76.862 160.314 76.862C162.829 76.862 164.899 77.23 166.524 77.966C168.18 78.6713 169.407 79.7753 170.204 81.278C171.032 82.75 171.446 84.6513 171.446 86.982V96.274C171.446 97.6233 171.124 98.6507 170.48 99.356C169.836 100.061 168.901 100.414 167.674 100.414C166.417 100.414 165.451 100.061 164.776 99.356C164.132 98.6507 163.81 97.6233 163.81 96.274V95.078L164.086 95.722C163.933 96.7033 163.58 97.5467 163.028 98.252C162.476 98.9573 161.756 99.5093 160.866 99.908C159.977 100.307 158.965 100.506 157.83 100.506ZM184.711 100.506C181.767 100.506 179.589 99.724 178.179 98.16C176.799 96.5653 176.109 94.1733 176.109 90.984V71.296C176.109 69.9467 176.461 68.9193 177.167 68.214C177.872 67.5087 178.869 67.156 180.157 67.156C181.475 67.156 182.487 67.5087 183.193 68.214C183.929 68.9193 184.297 69.9467 184.297 71.296V90.708C184.297 91.8427 184.511 92.6707 184.941 93.192C185.401 93.7133 185.983 93.974 186.689 93.974C186.903 93.974 187.118 93.9587 187.333 93.928C187.578 93.8667 187.839 93.8207 188.115 93.79C188.636 93.79 189.019 93.9893 189.265 94.388C189.541 94.7867 189.679 95.5993 189.679 96.826C189.679 97.8993 189.464 98.712 189.035 99.264C188.605 99.7853 187.946 100.123 187.057 100.276C186.811 100.307 186.459 100.353 185.999 100.414C185.539 100.475 185.109 100.506 184.711 100.506ZM204.204 100.506C201.444 100.506 199.052 100.031 197.028 99.08C195.035 98.0987 193.502 96.7187 192.428 94.94C191.355 93.1613 190.818 91.0607 190.818 88.638C190.818 86.3073 191.324 84.268 192.336 82.52C193.379 80.7413 194.79 79.3613 196.568 78.38C198.378 77.368 200.432 76.862 202.732 76.862C204.419 76.862 205.952 77.138 207.332 77.69C208.712 78.2113 209.893 78.9933 210.874 80.036C211.856 81.048 212.592 82.2747 213.082 83.716C213.604 85.1573 213.864 86.7673 213.864 88.546C213.864 89.1593 213.696 89.6193 213.358 89.926C213.021 90.202 212.484 90.34 211.748 90.34H197.672V86.476H207.884L207.148 87.074C207.148 85.9393 206.995 85.0193 206.688 84.314C206.382 83.6087 205.922 83.072 205.308 82.704C204.726 82.336 203.99 82.152 203.1 82.152C202.15 82.152 201.322 82.382 200.616 82.842C199.942 83.2713 199.42 83.9153 199.052 84.774C198.684 85.6327 198.5 86.706 198.5 87.994V88.408C198.5 90.5853 198.976 92.1493 199.926 93.1C200.908 94.02 202.41 94.48 204.434 94.48C205.109 94.48 205.876 94.4033 206.734 94.25C207.624 94.066 208.467 93.8207 209.264 93.514C210.062 93.2073 210.752 93.1613 211.334 93.376C211.917 93.56 212.362 93.8973 212.668 94.388C213.006 94.848 213.19 95.3847 213.22 95.998C213.251 96.5807 213.113 97.1633 212.806 97.746C212.5 98.298 211.994 98.7273 211.288 99.034C210.215 99.5247 209.065 99.8927 207.838 100.138C206.642 100.383 205.431 100.506 204.204 100.506ZM221.44 100.414C220.152 100.414 219.155 100.061 218.45 99.356C217.745 98.6507 217.392 97.6233 217.392 96.274V81.048C217.392 79.7293 217.729 78.7173 218.404 78.012C219.109 77.3067 220.106 76.954 221.394 76.954C222.682 76.954 223.663 77.3067 224.338 78.012C225.013 78.7173 225.35 79.7293 225.35 81.048V83.21L224.844 81.324C225.58 79.8827 226.623 78.7787 227.972 78.012C229.352 77.2453 230.916 76.862 232.664 76.862C234.473 76.862 235.961 77.2147 237.126 77.92C238.291 78.5947 239.165 79.668 239.748 81.14C240.331 82.5813 240.622 84.406 240.622 86.614V96.274C240.622 97.6233 240.269 98.6507 239.564 99.356C238.859 100.061 237.847 100.414 236.528 100.414C235.209 100.414 234.197 100.061 233.492 99.356C232.787 98.6507 232.434 97.6233 232.434 96.274V86.936C232.434 85.556 232.189 84.5747 231.698 83.992C231.238 83.4093 230.548 83.118 229.628 83.118C228.401 83.118 227.42 83.5167 226.684 84.314C225.948 85.0807 225.58 86.1233 225.58 87.442V96.274C225.58 99.034 224.2 100.414 221.44 100.414ZM257.156 100.506C254.856 100.506 252.955 100.153 251.452 99.448C249.98 98.7427 248.876 97.6847 248.14 96.274C247.404 94.8327 247.036 93.0387 247.036 90.892V83.394H245.472C244.491 83.394 243.724 83.1333 243.172 82.612C242.651 82.0907 242.39 81.3393 242.39 80.358C242.39 79.3767 242.651 78.6407 243.172 78.15C243.724 77.6287 244.491 77.368 245.472 77.368H247.036V74.516C247.036 73.1667 247.389 72.1393 248.094 71.434C248.8 70.7287 249.812 70.376 251.13 70.376C252.449 70.376 253.461 70.7287 254.166 71.434C254.872 72.1393 255.224 73.1667 255.224 74.516V77.368H258.996C260.008 77.368 260.775 77.6287 261.296 78.15C261.848 78.6407 262.124 79.3767 262.124 80.358C262.124 81.3393 261.848 82.0907 261.296 82.612C260.775 83.1333 260.008 83.394 258.996 83.394H255.224V90.616C255.224 91.7507 255.485 92.594 256.006 93.146C256.558 93.6673 257.417 93.928 258.582 93.928C259.012 93.928 259.426 93.882 259.824 93.79C260.223 93.698 260.591 93.652 260.928 93.652C261.419 93.6213 261.818 93.7747 262.124 94.112C262.431 94.4187 262.584 95.1393 262.584 96.274C262.584 97.194 262.446 97.976 262.17 98.62C261.894 99.2333 261.404 99.678 260.698 99.954C260.269 100.107 259.686 100.23 258.95 100.322C258.214 100.445 257.616 100.506 257.156 100.506ZM276.104 100.506C273.589 100.506 271.396 100.031 269.526 99.08C267.655 98.1293 266.198 96.7647 265.156 94.986C264.113 93.2073 263.592 91.1067 263.592 88.684C263.592 86.844 263.883 85.2033 264.466 83.762C265.048 82.29 265.892 81.048 266.996 80.036C268.1 78.9933 269.418 78.2113 270.952 77.69C272.485 77.138 274.202 76.862 276.104 76.862C278.618 76.862 280.811 77.3373 282.682 78.288C284.552 79.2387 285.994 80.6033 287.006 82.382C288.048 84.13 288.57 86.2307 288.57 88.684C288.57 90.4933 288.278 92.134 287.696 93.606C287.113 95.078 286.27 96.3353 285.166 97.378C284.092 98.39 282.774 99.172 281.21 99.724C279.676 100.245 277.974 100.506 276.104 100.506ZM276.104 94.48C276.932 94.48 277.668 94.2807 278.312 93.882C278.956 93.4527 279.446 92.824 279.784 91.996C280.152 91.1373 280.336 90.0333 280.336 88.684C280.336 86.6293 279.937 85.1573 279.14 84.268C278.342 83.348 277.33 82.888 276.104 82.888C275.276 82.888 274.54 83.0873 273.896 83.486C273.252 83.8847 272.746 84.5133 272.378 85.372C272.01 86.2 271.826 87.304 271.826 88.684C271.826 90.708 272.224 92.18 273.022 93.1C273.819 94.02 274.846 94.48 276.104 94.48ZM301.338 100.506C299.988 100.506 298.608 100.399 297.198 100.184C295.818 100 294.56 99.6473 293.426 99.126C292.659 98.8193 292.107 98.4053 291.77 97.884C291.463 97.3627 291.31 96.8107 291.31 96.228C291.34 95.6453 291.509 95.124 291.816 94.664C292.153 94.1733 292.582 93.836 293.104 93.652C293.656 93.4373 294.269 93.4527 294.944 93.698C296.232 94.158 297.382 94.4953 298.394 94.71C299.436 94.894 300.433 94.986 301.384 94.986C302.518 94.986 303.331 94.8327 303.822 94.526C304.312 94.1887 304.558 93.7593 304.558 93.238C304.558 92.778 304.389 92.4253 304.052 92.18C303.745 91.9347 303.3 91.766 302.718 91.674L297.612 90.846C295.71 90.5087 294.238 89.8187 293.196 88.776C292.153 87.7027 291.632 86.3073 291.632 84.59C291.632 82.9953 292.076 81.6307 292.966 80.496C293.886 79.3307 295.128 78.4413 296.692 77.828C298.286 77.184 300.111 76.862 302.166 76.862C303.546 76.862 304.803 76.9693 305.938 77.184C307.072 77.368 308.176 77.7207 309.25 78.242C309.924 78.518 310.4 78.9167 310.676 79.438C310.952 79.9593 311.059 80.5113 310.998 81.094C310.936 81.646 310.737 82.1673 310.4 82.658C310.093 83.118 309.664 83.44 309.112 83.624C308.56 83.7773 307.916 83.7313 307.18 83.486C306.168 83.0873 305.263 82.796 304.466 82.612C303.699 82.428 302.978 82.336 302.304 82.336C301.046 82.336 300.157 82.5047 299.636 82.842C299.114 83.1793 298.854 83.6087 298.854 84.13C298.854 84.5287 298.992 84.866 299.268 85.142C299.544 85.3873 299.973 85.556 300.556 85.648L305.662 86.522C307.624 86.8287 309.127 87.5033 310.17 88.546C311.243 89.558 311.78 90.938 311.78 92.686C311.78 95.17 310.829 97.102 308.928 98.482C307.026 99.8313 304.496 100.506 301.338 100.506Z" fill="white"/>
</svg>
