<svg width="408" height="408" viewBox="0 0 408 408" fill="none" xmlns="http://www.w3.org/2000/svg">
<path fill-rule="evenodd" clip-rule="evenodd" d="M266.242 165.407C268.413 177.72 268.137 190.338 265.432 202.544C262.726 214.75 257.643 226.302 250.471 236.543C243.3 246.785 234.184 255.513 223.639 262.23C213.095 268.946 201.332 273.521 189.019 275.692C176.707 277.863 164.089 277.587 151.883 274.883C139.678 272.176 128.125 267.093 117.883 259.921C107.643 252.751 98.9146 243.634 92.1972 233.09C85.48 222.546 80.9054 210.783 78.7344 198.47C74.3501 173.605 80.0229 148.017 94.5048 127.334C108.987 106.652 131.092 92.5693 155.957 88.185C180.822 83.8006 206.41 89.4734 227.092 103.955C247.775 118.437 261.857 140.543 266.242 165.407ZM264.339 262.853C243.659 286.328 214.777 300.992 183.623 303.837C152.469 306.68 121.408 297.488 96.8199 278.147C72.2317 258.805 55.9827 230.784 51.4097 199.836C46.8367 168.888 54.2872 137.364 72.2307 111.738C90.1743 86.1117 117.249 68.3287 147.894 62.0411C178.54 55.7535 210.429 61.4385 237.014 77.9287C263.599 94.4189 282.86 120.462 290.843 150.711C298.825 180.958 294.924 213.114 279.938 240.576L369.359 303.165C370.824 304.191 372.072 305.496 373.032 307.003C373.994 308.511 374.648 310.194 374.959 311.955C375.269 313.716 375.23 315.521 374.842 317.268C374.455 319.013 373.729 320.665 372.703 322.13C371.677 323.596 370.372 324.843 368.865 325.804C367.357 326.766 365.674 327.42 363.913 327.731C362.152 328.041 360.347 328.002 358.6 327.614C356.856 327.227 355.203 326.5 353.738 325.474L264.366 262.849L264.339 262.853Z" fill="#F2B441"/>
<mask id="mask0_2_39" style="mask-type:alpha" maskUnits="userSpaceOnUse" x="87" y="120" width="173" height="145">
<path d="M202.323 148.875C202.323 156.509 199.29 163.831 193.891 169.23C188.493 174.628 181.171 177.661 173.536 177.661C165.901 177.661 158.579 174.628 153.181 169.23C147.782 163.831 144.749 156.509 144.749 148.875C144.749 141.24 147.782 133.918 153.181 128.519C158.579 123.121 165.901 120.088 173.536 120.088C181.171 120.088 188.493 123.121 193.891 128.519C199.29 133.918 202.323 141.24 202.323 148.875ZM250.3 168.066C250.3 173.155 248.279 178.036 244.679 181.636C241.08 185.235 236.199 187.257 231.109 187.257C226.02 187.257 221.139 185.235 217.539 181.636C213.94 178.036 211.918 173.155 211.918 168.066C211.918 162.976 213.94 158.095 217.539 154.496C221.139 150.896 226.02 148.875 231.109 148.875C236.199 148.875 241.08 150.896 244.679 154.496C248.279 158.095 250.3 162.976 250.3 168.066ZM211.918 235.235C211.918 225.055 207.875 215.292 200.676 208.095C193.478 200.896 183.716 196.852 173.536 196.852C163.356 196.852 153.594 200.896 146.396 208.095C139.197 215.292 135.154 225.055 135.154 235.235V264.021H211.918V235.235ZM135.154 168.066C135.154 173.155 133.132 178.036 129.533 181.636C125.934 185.235 121.053 187.257 115.963 187.257C110.873 187.257 105.992 185.235 102.393 181.636C98.7936 178.036 96.7716 173.155 96.7716 168.066C96.7716 162.976 98.7936 158.095 102.393 154.496C105.992 150.896 110.873 148.875 115.963 148.875C121.053 148.875 125.934 150.896 129.533 154.496C133.132 158.095 135.154 162.976 135.154 168.066ZM223.913 264.021V235.235C223.928 225.478 221.45 215.881 216.717 207.35C220.971 206.262 232.613 206.158 236.913 207.05C241.214 207.941 245.253 209.803 248.724 212.492C252.194 215.182 255.005 218.629 256.942 222.571C258.877 226.512 259.888 230.844 259.896 235.235V264.021H223.913ZM130.356 207.35C125.623 215.881 123.146 225.478 123.159 235.235V264.021H87.176V235.235C87.1741 230.84 88.1785 226.504 90.1117 222.557C92.0451 218.612 94.8562 215.16 98.3298 212.469C101.803 209.777 105.847 207.915 110.151 207.029C114.455 206.142 126.101 206.251 130.356 207.35Z" fill="black"/>
</mask>
<g mask="url(#mask0_2_39)">
<path d="M254.712 166.803C262.668 211.924 232.539 254.952 187.418 262.909C142.296 270.865 99.2683 240.736 91.3123 195.615C83.3561 150.493 113.485 107.465 158.606 99.5092C203.727 91.5532 246.755 121.682 254.712 166.803Z" fill="white"/>
</g>
</svg>
